<svg width="313" height="2660" xmlns="http://www.w3.org/2000/svg"><g transform="translate(0 6)" fill="none" fill-rule="evenodd"><circle stroke="#000" stroke-width="12" fill="#FFF" cx="157" cy="1090" r="124"/><path d="M143.5 29.5h12m-14 27h15m-16 15h15m-15 15h15m-15 15h15m-15 15h15m-15 15h15m-15 15h15m-15 15h15m-15 20h15m-15 20h15m-15 20h15m-15 20h15m-15 20h15m-15 20h15m-15 20h15m-15 20h15m-15 20h15m-15 20h15m-15 20h15m-15 20h15m-15 20h15m-15 58h15m-15 15h15m-15 15h15m-15 15h15m-15 20h15m-15 15h15m-15 15h15m-15 15h15m-15 20h15m-15 15h15m-15 15h15m-15 15h15m-15 20h15m-15 15h15m-15 15h15m-15 15h15m-15 20h15m-12-698h12m-11-23.5h10" stroke="#000" stroke-width="6" stroke-linecap="square"/><path d="M103.584 979.2s-22.69-54.454-29.593-67.485c-6.903-13.031-8.584-20.758 6.903-20.758 15.488 0 80.106 1.008 80.106 1.008m-2.5-80.422H88.17s-11.561 0 0 20.527c11.563 20.528 22.306 44.899 21.589 56.97M158 752.5l-25.445-.531s-8.325-1.696-8.325 8c0 9.695 1.786 48.785 1.786 48.785m10.91-60.852V485.5S134 457.262 145 457.262h20.773M162 1c-5.42 1.5-18.426-10.426-20.651 43.065-2.068 49.718-4.104 350.698-3.843 392.923.02 3.205 3.843 5.012 3.843 5.012h20.071m13.243 798.707H95.86c-8.368 0-11.192 15.227 6.849 15.227h59.525M177 1271.093H95.741c-8.629 0-11.54 15.226 7.063 15.226h61.38m-56.254-80.815v34.527m.18 48.485L77.733 2511.4l-46.886 139.582m-30.806-3.88h164.97" stroke="#000" stroke-width="12"/><g stroke="#000" stroke-width="6" stroke-linecap="square"><path d="M123 1214v26.519m1 50.481l-3 1224-20 130m37-1431v26.519m1 50.481v1224.021L131 2646m21-1432v26.519m-.5 50.481v1355.013"/><path d="M72.5 2646l33-129.5-3-676.5"/><path d="M84.5 2320l4.5 191.5-41 135M227.5 2320l-4.5 191.5 41 135"/></g><g transform="translate(58 1016)"><ellipse stroke="#101010" fill="#000" cx="65.5" cy="27" rx="11.5" ry="27"/><path d="M14.373 105.855C8.144 110.737 3.5 114.145 1 110s1.77-7.118 8-12 11-9 14.162-4.898c3.162 4.103-2.56 7.87-8.789 12.753z" fill="#000" fill-rule="nonzero"/><path d="M14 103s26.5 47 86 47" stroke="#000" stroke-width="6"/></g><path d="M169.5 29.5h-12m14 27h-15m16 15h-15m15 15h-15m15 15h-15m15 15h-15m15 15h-15m15 15h-15m15 15h-15m15 20h-15m15 20h-15m15 20h-15m15 20h-15m15 20h-15m15 20h-15m15 20h-15m15 20h-15m15 20h-15m15 20h-15m15 20h-15m15 20h-15m15 20h-15m15 58h-15m15 15h-15m15 15h-15m15 15h-15m15 20h-15m15 15h-15m15 15h-15m15 15h-15m15 20h-15m15 15h-15m15 15h-15m15 15h-15m15 20h-15m15 15h-15m15 15h-15m15 15h-15m15 20h-15m12-698h-12m11-23.5h-10" stroke="#000" stroke-width="6" stroke-linecap="square"/><path d="M211.95 979.2s21.03-54.454 27.429-67.485c6.398-13.031 7.957-20.758-6.399-20.758-14.355 0-74.25 1.008-74.25 1.008m-.687-80.422h67.027s11.02 0 0 20.527c-11.02 20.528-21.257 44.899-20.574 56.97M154 752.5l26.445-.531s8.325-1.696 8.325 8c0 9.695-1.786 48.785-1.786 48.785m-10.91-60.852V485.5S179 457.262 168 457.262h-20.773M154.5 2s16.633-11.426 18.234 42.066c1.489 49.72 2.954 350.708 2.766 392.934-.014 3.204-2.766 5.012-2.766 5.012H158.29m-9.227 798.695h68.898c7.316 0 9.785 15.227-5.988 15.227h-52.044m-10.543 15.159h68.898c7.317 0 9.786 15.226-5.988 15.226h-52.044m44.818-80.815v34.527m-.18 46.485L235.267 2509.4l46.886 139.582m30.806-1.88h-153.46" stroke="#000" stroke-width="12"/><g stroke="#000" stroke-width="6" stroke-linecap="square"><path d="M190 1214v26.519M189 1291l3 1224 20 130m-37-1431v26.519M174 1291v1224.021L182 2646m-21-1432v26.519m.5 50.481v1355.013"/><path d="M239.5 2646l-33-129.5 3-676.5"/></g><g transform="matrix(-1 0 0 1 255 1016)"><ellipse stroke="#101010" fill="#000" cx="65.5" cy="27" rx="11.5" ry="27"/><path d="M14.373 105.855C8.144 110.737 3.5 114.145 1 110s1.77-7.118 8-12 11-9 14.162-4.898c3.162 4.103-2.56 7.87-8.789 12.753z" fill="#000" fill-rule="nonzero"/><path d="M14 103s26.5 47 86 47" stroke="#000" stroke-width="6"/></g><path d="M102.5 1868.5v-337m107 337v-337" stroke="#000" stroke-width="6" stroke-linecap="square"/></g></svg>