<svg width="878" height="205" xmlns="http://www.w3.org/2000/svg">
  <title>
    JeansTeam
  </title>
  <path d="M67.483 124.615c6.624-16.974 34.57-93.98 34.57-96.05 0-2.897-1.657-4.14-4.14-4.14-8.074 0-53.408 23.6-53.615 39.54-.207 10.763 10.558 40.57 12.835 48.437l-22.15-8.28c-3.312-9.936-9.936-26.082-9.936-40.572 0-31.05 59.41-59.41 82.387-59.41 15.525 0 17.388 11.8 17.388 20.286.207 17.18-27.324 78.66-34.155 97.705h9.73l8.693 18.218-26.082 3.312c-7.038 20.907-19.665 60.858-56.72 60.858C13.663 204.518 0 199.343 0 186.095c0-25.875 56.512-55.684 67.483-61.48zm-30.016 41.608c-6.83 5.382-16.56 12.213-16.353 16.767.207 3.52 2.898 3.52 4.968 3.52 18.216-.622 31.672-26.704 32.5-35.812-5.59 4.14-13.87 9.936-21.115 15.525zm135.138-90.46c12.006 0 17.803 6.417 17.803 15.525 0 14.283-18.838 28.98-36.64 36.225h27.945l-5.59 14.49H155.84c-12.006 0-28.566-1.24-28.566-19.458 0-26.29 27.945-46.782 45.333-46.782zM148.18 115.92c13.247-7.865 25.46-15.73 25.46-20.078 0-2.277-.62-3.726-4.347-3.726-7.038 0-24.012 14.49-26.91 26.496 0 0 4.14-1.656 5.796-2.69zm128.513-40.157h-9.522c-30.014 0-66.654 21.942-66.654 50.922 0 14.905 13.04 16.354 19.25 16.354 7.453 0 13.87-1.243 19.253-5.798.827 1.242 1.448 2.692 2.897 3.52 2.484 1.45 4.347 1.242 6.83 1.242h14.905l4.968-14.49h-8.28c-3.933 0-6.624-1.243-6.417-4.348.207-3.52 7.245-19.872 8.487-22.977l-16.146 1.448c-2.484 6.003-5.175 13.87-8.694 19.872-1.863 3.312-6.21 6.003-11.593 6.003-3.52 0-8.073-.62-8.073-5.382 0-13.04 21.115-30.22 43.47-30.014 1.864 0 2.9.207 4.97 0l10.35-16.353zm17.975 66.034c10.557-16.768 25.46-41.608 36.432-41.608 1.863 0 1.863 1.655 1.45 3.104-.83 3.105-9.316 24.22-9.316 29.394 0 7.246 6.83 9.316 14.283 9.316h14.49l4.14-14.49h-5.175c-2.898 0-5.175-.208-7.452-.83-.207 0-.828-.827-.828-1.034 2.484-9.936 11.8-24.633 11.8-36.846 0-4.968-2.692-10.557-10.558-10.557-9.73 0-20.7 9.936-30.43 18.837l5.383-18.837-16.974 3.726-23.39 62.1 16.145-2.276zm77.798-38.71l14.283 5.59 10.556-11.386c1.656 4.555 2.898 7.867 2.898 13.042 0 6.21-2.277 11.385-7.866 14.49-2.898 1.656-8.694 2.69-13.04 2.69h-11.593l-6.624 14.492h23.392c16.974 0 31.257-14.49 31.257-30.637 0-15.318-4.555-23.598-4.97-29.187 0-.414-.206-.414 0-.828 2.07-3.933 7.66-10.97 9.73-14.076h-18.01l-30.014 35.81zM499.91 52.993l9.523-21.943 70.587-11.592 6.003-15.94L609.208 0l-5.59 15.11 30.844-4.76-6.624 20.493-32.914 6.624-41.814 107.435-23.805 5.796 42.228-109.712-71.623 12.007zm156.667 22.77c12.006 0 17.802 6.417 17.802 15.525 0 14.283-18.838 28.98-36.64 36.225h27.945l-5.59 14.49H639.81c-12.007 0-28.567-1.24-28.567-19.458 0-26.29 27.945-46.782 45.334-46.782zM632.15 115.92c13.248-7.865 25.462-15.73 25.462-20.078 0-2.277-.62-3.726-4.347-3.726-7.04 0-24.013 14.49-26.91 26.496 0 0 4.14-1.656 5.795-2.69zm128.514-40.157h-9.522c-30.015 0-66.655 21.942-66.655 50.922 0 14.905 13.042 16.354 19.252 16.354 7.45 0 13.868-1.243 19.25-5.798.828 1.242 1.45 2.692 2.898 3.52 2.484 1.45 4.347 1.242 6.83 1.242h14.905l4.968-14.49h-8.28c-3.932 0-6.623-1.243-6.416-4.348.207-3.52 7.245-19.872 8.487-22.977l-16.145 1.448c-2.484 6.003-5.175 13.87-8.694 19.872-1.862 3.312-6.21 6.003-11.59 6.003-3.52 0-8.074-.62-8.074-5.382 0-13.04 21.114-30.22 43.47-30.014 1.863 0 2.898.207 4.968 0l10.35-16.353zm1.83 68.31l16.352-2.276c15.525-27.118 28.566-41.815 36.64-41.815 1.034 0 1.24 1.45 1.24 2.07-.206 3.933-11.798 33.12-14.903 41.194l15.732-1.863c6.21-11.18 26.083-41.4 36.226-41.4 1.036 0 1.45.413 1.45 2.07 0 2.69-10.143 25.046-10.143 32.084 0 7.04 8.694 8.074 14.283 8.074l14.283-.206 4.347-14.49h-7.452c-2.69 0-3.52-.208-5.175-.622-.207 0-.62-.828-.62-1.035 2.483-9.936 12.005-26.29 12.005-38.502 0-4.554-2.69-9.108-10.557-9.108-10.763 0-17.594 7.038-28.15 17.18 1.034-9.52-.208-17.18-9.73-17.18-10.558 0-20.7 9.936-30.844 18.63l5.59-18.63-17.39 3.726-23.183 62.1z" fill-rule="nonzero" fill="#F00"/>
</svg>
