<svg width="294" height="166" xmlns="http://www.w3.org/2000/svg">
  <title>
    Jeans-Team
  </title>
  <path d="M32.84 91.68c.22-9.487.18-52.147-.19-53.16-.516-1.418-1.547-1.73-2.763-1.288-3.95 1.438-21.93 21.06-19.193 28.896C12.51 71.433 23.086 84.102 25.6 87.546L13.29 87.44c-3.39-4.274-9.508-10.995-12.09-18.086C-4.33 54.16 19.69 29.7 30.935 25.61c7.597-2.766 10.61 2.676 12.122 6.83 3.16 8.37.64 43.358.688 53.894l4.76-1.733 7.5 7.366-12.174 6.267c.28 11.484 1.217 33.283-16.915 39.882-6.18 2.25-13.787 2.15-16.146-4.333-4.61-12.66 17.735-37.313 22.07-42.103zm-7.276 25.705c-2.384 3.85-5.928 8.926-5.016 11.117.728 1.686 2.045 1.206 3.058.838 8.803-3.55 10.742-18.708 9.525-23.313-1.997 3.022-5.016 7.333-7.566 11.358zM75.58 49.05c5.877-2.14 9.856-.03 11.478 4.426 2.544 6.99-4.056 17.537-11.477 24.253l13.676-4.98-.155 8.088-9.926 3.613c-5.875 2.14-14.2 4.48-17.444-4.433-4.682-12.865 5.343-27.87 13.85-30.967zm-4.8 24.002c5.083-6.21 9.658-12.234 8.884-14.36-.405-1.115-.967-1.714-2.79-1.05-3.445 1.254-9.17 11.367-8.45 17.76 0 0 1.73-1.55 2.357-2.35zm55.736-42.54l-4.66 1.695c-14.687 5.346-28.71 22.61-23.547 36.79 2.654 7.294 9.293 5.68 12.332 4.574 3.647-1.326 6.566-3.077 8.388-6.264.627.46 1.19 1.06 2.045 1.206 1.474.266 2.35-.167 3.564-.61l7.292-2.654-.15-7.975-4.05 1.475c-1.926.7-3.464.572-3.915-.985-.526-1.76.006-11.015.06-12.755l-7.643 3.585c-.146 3.38-.062 7.708-.715 11.273-.323 1.952-1.97 4.043-4.604 5.002-1.722.626-4.06 1.134-4.91-1.196-2.322-6.382 4.95-18.55 15.927-22.43.912-.332 1.455-.415 2.43-.885l2.153-9.846zm20.557 29.11c2.18-10.084 5.05-24.894 10.417-26.848.912-.332 1.207.478 1.263 1.26.147 1.668-.245 13.512.677 16.044 1.29 3.545 5 3.342 8.648 2.014l7.09-2.58-.554-7.828-2.533.92c-1.417.517-2.568.822-3.793.923-.1.037-.552-.257-.59-.36-.553-5.303 1.387-14.154-.788-20.13-.886-2.432-3.198-4.688-7.047-3.287-4.76 1.733-8.36 8.55-11.536 14.638l-.72-10.176-7.644 4.846-.385 34.555 7.495-3.99zm31.176-32.798l7.984.19 3.138-7.45c1.62 1.933 2.82 3.333 3.74 5.865 1.107 3.038.914 5.976-1.268 8.49-1.123 1.327-3.775 2.866-5.902 3.64l-5.672 2.065-.66 8.27 11.445-4.166c8.306-3.024 12.715-12.658 9.84-20.56-2.73-7.495-6.432-10.736-7.63-13.397-.074-.203-.175-.166-.148-.405.313-2.294 1.794-6.733 2.254-8.62l-8.812 3.206-8.31 22.87zM94.47 122.99l.752-12.432L127.7 92.313l.098-8.87 10.718-5.85-.044 8.39 14.245-7.823.41 11.208L138.2 98.47l-1.327 60.02-10.617 7.077 1.124-61.207-32.91 18.63zm80.224-17.14c5.875-2.14 9.855-.03 11.477 4.426 2.545 6.99-4.056 17.537-11.477 24.253l13.675-4.98-.154 8.088-9.927 3.613c-5.875 2.14-14.2 4.48-17.444-4.433-4.683-12.865 5.342-27.87 13.85-30.967zm-4.297 24.316c5.082-6.21 9.657-12.234 8.883-14.36-.406-1.115-.968-1.714-2.79-1.05-3.445 1.254-9.17 11.368-8.45 17.76 0 0 1.73-1.55 2.357-2.35zM225.663 87.3l-4.66 1.695c-14.688 5.346-28.71 22.61-23.547 36.79 2.654 7.293 9.294 5.68 12.333 4.574 3.645-1.33 6.564-3.08 8.387-6.266.626.46 1.188 1.058 2.045 1.206 1.473.266 2.348-.167 3.564-.61l7.293-2.654-.15-7.975-4.053 1.475c-1.924.7-3.462.572-3.914-.984-.525-1.758.006-11.014.06-12.754l-7.642 3.584c-.146 3.38-.06 7.71-.714 11.273-.322 1.953-1.97 4.044-4.604 5.002-1.722.627-4.06 1.134-4.91-1.195-2.32-6.382 4.95-18.55 15.927-22.43.91-.332 1.454-.415 2.43-.885l2.153-9.846zm13.648 33.104l7.598-4.027c2.768-16.035 6.532-25.55 10.482-26.988.507-.185.866.487.977.79.6 1.962.125 18.31.043 22.813l7.367-3.713c1.048-6.576 5.39-24.905 10.353-26.71.506-.186.783-.057 1.078.753.48 1.317-.503 14.064.75 17.508 1.254 3.445 5.693 2.403 8.428 1.407l6.952-2.645-.453-7.865-3.647 1.328c-1.317.48-1.76.525-2.643.617-.1.037-.45-.294-.488-.396-.554-5.304 1.193-15.002-.982-20.98-.812-2.227-2.94-3.977-6.79-2.576-5.266 1.918-7.355 6.578-10.715 13.422-1.19-4.844-3.16-8.37-7.82-6.675-5.167 1.88-8.36 8.55-11.776 14.61l-.583-10.112-7.844 4.92-.285 34.52z" fill="#F00" fill-rule="nonzero"/>
</svg>
