<?xml version="1.0" encoding="UTF-8"?>
<svg width="313px" height="2660px" viewBox="0 0 313 2660" version="1.1" xmlns="http://www.w3.org/2000/svg" xmlns:xlink="http://www.w3.org/1999/xlink">
    <!-- Generator: Sketch 43.2 (39069) - http://www.bohemiancoding.com/sketch -->
    <title>final copy</title>
    <desc>Created with Sketch.</desc>
    <defs></defs>
    <g id="Symbols" stroke="none" stroke-width="1" fill="none" fill-rule="evenodd">
        <g id="final-copy" transform="translate(0.000000, 6.000000)">
            <circle id="Oval" stroke="#000000" stroke-width="12" fill="#FFFFFF" cx="157" cy="1090" r="124"></circle>
            <g id="Group-2">
                <g id="horizontal-lines" transform="translate(140.000000, 15.000000)" stroke="#000000" stroke-width="6" stroke-linecap="square">
                    <path d="M3.5,14.5 L15.5,14.5" id="Line"></path>
                    <path d="M1.5,41.5 L16.5,41.5" id="Line"></path>
                    <path d="M0.5,56.5 L15.5,56.5" id="Line-Copy-2"></path>
                    <path d="M0.5,71.5 L15.5,71.5" id="Line-Copy-3"></path>
                    <path d="M0.5,86.5 L15.5,86.5" id="Line-Copy-4"></path>
                    <path d="M0.5,101.5 L15.5,101.5" id="Line-Copy-5"></path>
                    <path d="M0.5,116.5 L15.5,116.5" id="Line-Copy-6"></path>
                    <path d="M0.5,131.5 L15.5,131.5" id="Line-Copy-7"></path>
                    <path d="M0.5,146.5 L15.5,146.5" id="Line-Copy-8"></path>
                    <path d="M0.5,166.5 L15.5,166.5" id="Line-Copy-9"></path>
                    <path d="M0.5,186.5 L15.5,186.5" id="Line-Copy-10"></path>
                    <path d="M0.5,206.5 L15.5,206.5" id="Line-Copy-11"></path>
                    <path d="M0.5,226.5 L15.5,226.5" id="Line-Copy-12"></path>
                    <path d="M0.5,246.5 L15.5,246.5" id="Line-Copy-13"></path>
                    <path d="M0.5,266.5 L15.5,266.5" id="Line-Copy-14"></path>
                    <path d="M0.5,286.5 L15.5,286.5" id="Line-Copy-15"></path>
                    <path d="M0.5,306.5 L15.5,306.5" id="Line-Copy-16"></path>
                    <path d="M0.5,326.5 L15.5,326.5" id="Line-Copy-17"></path>
                    <path d="M0.5,346.5 L15.5,346.5" id="Line-Copy-18"></path>
                    <path d="M0.5,366.5 L15.5,366.5" id="Line-Copy-19"></path>
                    <path d="M0.5,386.5 L15.5,386.5" id="Line-Copy-20"></path>
                    <path d="M0.5,406.5 L15.5,406.5" id="Line-Copy-21"></path>
                    <path d="M0.5,464.5 L15.5,464.5" id="Line-Copy-22"></path>
                    <path d="M0.5,479.5 L15.5,479.5" id="Line-Copy-23"></path>
                    <path d="M0.5,494.5 L15.5,494.5" id="Line-Copy-24"></path>
                    <path d="M0.5,509.5 L15.5,509.5" id="Line-Copy-25"></path>
                    <path d="M0.5,529.5 L15.5,529.5" id="Line-Copy-26"></path>
                    <path d="M0.5,544.5 L15.5,544.5" id="Line-Copy-27"></path>
                    <path d="M0.5,559.5 L15.5,559.5" id="Line-Copy-28"></path>
                    <path d="M0.5,574.5 L15.5,574.5" id="Line-Copy-29"></path>
                    <path d="M0.5,594.5 L15.5,594.5" id="Line-Copy-30"></path>
                    <path d="M0.5,609.5 L15.5,609.5" id="Line-Copy-31"></path>
                    <path d="M0.5,624.5 L15.5,624.5" id="Line-Copy-32"></path>
                    <path d="M0.5,639.5 L15.5,639.5" id="Line-Copy-33"></path>
                    <path d="M0.5,659.5 L15.5,659.5" id="Line-Copy-34"></path>
                    <path d="M0.5,674.5 L15.5,674.5" id="Line-Copy-35"></path>
                    <path d="M0.5,689.5 L15.5,689.5" id="Line-Copy-36"></path>
                    <path d="M0.5,704.5 L15.5,704.5" id="Line-Copy-37"></path>
                    <path d="M0.5,724.5 L15.5,724.5" id="Line-Copy-38"></path>
                    <path d="M3.5,26.5 L15.5,26.5" id="Line-Copy"></path>
                    <path d="M4.5,3 L14.5,3" id="Line"></path>
                </g>
                <g id="Group" stroke="#000000" stroke-width="12">
                    <path d="M103.584075,979.199219 C103.584075,979.199219 80.8941643,924.746094 73.9911046,911.714844 C67.0880449,898.683594 65.4065304,890.957031 80.8941643,890.957031 C96.3817983,890.957031 161,891.964844 161,891.964844" id="Path-2"></path>
                    <path d="M158.5,811.542969 L88.1709382,811.542969 C88.1709382,811.542969 76.6085929,811.542969 88.1709382,832.070312 C99.7332835,852.597656 110.475895,876.96875 109.758628,889.039062" id="Path-3"></path>
                    <path d="M158,752.5 L132.554687,751.96875 C132.554687,751.96875 124.230469,750.273438 124.230469,759.96875 C124.230469,769.664062 126.015625,808.753906 126.015625,808.753906" id="Path-4"></path>
                    <path d="M136.925781,747.902344 L136.925781,485.5 C136.925781,485.5 134,457.261719 145,457.261719 C156,457.261719 165.773438,457.261719 165.773438,457.261719" id="Path-5"></path>
                    <path d="M162,1 C156.580467,2.5 143.5742,-9.42550486 141.348961,44.0652613 C139.28068,93.7830503 137.245451,394.763235 137.506353,436.988414 C137.526153,440.192793 141.348961,442 141.348961,442 L146.097947,442 L161.419533,442" id="Path-6"></path>
                    <path d="M174.663499,1240.70703 L112.592556,1240.70703 C112.592556,1240.70703 104.228862,1240.70703 95.8606994,1240.70703 C87.4925372,1240.70703 84.6688967,1255.93359 102.709814,1255.93359 L162.235015,1255.93359" id="Path-7"></path>
                    <path d="M177,1271.09254 L112.994377,1271.09254 C112.994377,1271.09254 104.369996,1271.09254 95.7410075,1271.09254 C87.1120194,1271.09254 84.2003693,1286.3191 102.803602,1286.3191 L164.184134,1286.3191" id="Path-7-Copy"></path>
                    <path d="M107.929688,1205.50391 L107.929688,1240.03052" id="Path-8"></path>
                    <polyline id="Path-9" points="108.109375 1288.51562 77.734375 2511.40039 30.8476562 2650.98242"></polyline>
                    <path d="M0.041015625,2647.10156 L165.010218,2647.10156" id="Path-10"></path>
                </g>
                <g id="vertical-lines" transform="translate(48.000000, 1214.000000)" stroke="#000000" stroke-width="6" stroke-linecap="square">
                    <path d="M75,0 L75,26.5188612" id="Path-11"></path>
                    <polyline id="Path-11-Copy-3" points="76 77 73 1301 53 1431"></polyline>
                    <path d="M90,0 L90,26.5188612" id="Path-11-Copy"></path>
                    <polyline id="Path-11-Copy-4" points="91 77 91 1301.02148 83 1432"></polyline>
                    <path d="M104,0 L104,26.5188612" id="Path-11-Copy-2"></path>
                    <path d="M103.5,77 L103.5,1432.01328" id="Path-11-Copy-5"></path>
                    <polyline id="Path-12" points="24.5 1432 57.5 1302.5 54.5 626"></polyline>
                    <polyline id="Path-13" points="36.5 1106 41 1297.5 0 1432.5"></polyline>
                    <polyline id="Path-13-Copy" transform="translate(195.500000, 1269.250000) scale(-1, 1) translate(-195.500000, -1269.250000) " points="211.5 1106 216 1297.5 175 1432.5"></polyline>
                </g>
                <g id="face" transform="translate(58.000000, 1016.000000)">
                    <ellipse id="Oval-2" stroke="#101010" fill="#000000" cx="65.5" cy="27" rx="11.5" ry="27"></ellipse>
                    <path d="M14.3733538,105.854753 C8.14424991,110.73668 3.5,114.145247 1,110 C-1.5,105.854753 2.77089612,102.881927 9,98 C15.2291039,93.1180728 20,89 23.1619208,93.1024955 C26.3238416,97.2049909 20.6024577,100.972826 14.3733538,105.854753 Z" id="Combined-Shape" fill="#000000" fill-rule="nonzero"></path>
                    <path d="M14,103 C14,103 40.5,150 100,150" id="Path-14" stroke="#000000" stroke-width="6"></path>
                </g>
            </g>
            <g id="Group-2-Copy" transform="translate(230.000000, 1324.500000) scale(-1, 1) translate(-230.000000, -1324.500000) translate(147.000000, 0.000000)">
                <g id="horizontal-lines" transform="translate(140.000000, 15.000000)" stroke="#000000" stroke-width="6" stroke-linecap="square">
                    <path d="M3.5,14.5 L15.5,14.5" id="Line"></path>
                    <path d="M1.5,41.5 L16.5,41.5" id="Line"></path>
                    <path d="M0.5,56.5 L15.5,56.5" id="Line-Copy-2"></path>
                    <path d="M0.5,71.5 L15.5,71.5" id="Line-Copy-3"></path>
                    <path d="M0.5,86.5 L15.5,86.5" id="Line-Copy-4"></path>
                    <path d="M0.5,101.5 L15.5,101.5" id="Line-Copy-5"></path>
                    <path d="M0.5,116.5 L15.5,116.5" id="Line-Copy-6"></path>
                    <path d="M0.5,131.5 L15.5,131.5" id="Line-Copy-7"></path>
                    <path d="M0.5,146.5 L15.5,146.5" id="Line-Copy-8"></path>
                    <path d="M0.5,166.5 L15.5,166.5" id="Line-Copy-9"></path>
                    <path d="M0.5,186.5 L15.5,186.5" id="Line-Copy-10"></path>
                    <path d="M0.5,206.5 L15.5,206.5" id="Line-Copy-11"></path>
                    <path d="M0.5,226.5 L15.5,226.5" id="Line-Copy-12"></path>
                    <path d="M0.5,246.5 L15.5,246.5" id="Line-Copy-13"></path>
                    <path d="M0.5,266.5 L15.5,266.5" id="Line-Copy-14"></path>
                    <path d="M0.5,286.5 L15.5,286.5" id="Line-Copy-15"></path>
                    <path d="M0.5,306.5 L15.5,306.5" id="Line-Copy-16"></path>
                    <path d="M0.5,326.5 L15.5,326.5" id="Line-Copy-17"></path>
                    <path d="M0.5,346.5 L15.5,346.5" id="Line-Copy-18"></path>
                    <path d="M0.5,366.5 L15.5,366.5" id="Line-Copy-19"></path>
                    <path d="M0.5,386.5 L15.5,386.5" id="Line-Copy-20"></path>
                    <path d="M0.5,406.5 L15.5,406.5" id="Line-Copy-21"></path>
                    <path d="M0.5,464.5 L15.5,464.5" id="Line-Copy-22"></path>
                    <path d="M0.5,479.5 L15.5,479.5" id="Line-Copy-23"></path>
                    <path d="M0.5,494.5 L15.5,494.5" id="Line-Copy-24"></path>
                    <path d="M0.5,509.5 L15.5,509.5" id="Line-Copy-25"></path>
                    <path d="M0.5,529.5 L15.5,529.5" id="Line-Copy-26"></path>
                    <path d="M0.5,544.5 L15.5,544.5" id="Line-Copy-27"></path>
                    <path d="M0.5,559.5 L15.5,559.5" id="Line-Copy-28"></path>
                    <path d="M0.5,574.5 L15.5,574.5" id="Line-Copy-29"></path>
                    <path d="M0.5,594.5 L15.5,594.5" id="Line-Copy-30"></path>
                    <path d="M0.5,609.5 L15.5,609.5" id="Line-Copy-31"></path>
                    <path d="M0.5,624.5 L15.5,624.5" id="Line-Copy-32"></path>
                    <path d="M0.5,639.5 L15.5,639.5" id="Line-Copy-33"></path>
                    <path d="M0.5,659.5 L15.5,659.5" id="Line-Copy-34"></path>
                    <path d="M0.5,674.5 L15.5,674.5" id="Line-Copy-35"></path>
                    <path d="M0.5,689.5 L15.5,689.5" id="Line-Copy-36"></path>
                    <path d="M0.5,704.5 L15.5,704.5" id="Line-Copy-37"></path>
                    <path d="M0.5,724.5 L15.5,724.5" id="Line-Copy-38"></path>
                    <path d="M3.5,26.5 L15.5,26.5" id="Line-Copy"></path>
                    <path d="M4.5,3 L14.5,3" id="Line"></path>
                </g>
                <g id="Group" stroke="#000000" stroke-width="12">
                    <path d="M101.050781,979.199219 C101.050781,979.199219 80.0195312,924.746094 73.6210938,911.714844 C67.2226563,898.683594 65.6640625,890.957031 80.0195312,890.957031 C94.375,890.957031 154.269531,891.964844 154.269531,891.964844" id="Path-2"></path>
                    <path d="M154.957031,811.542969 L87.9296875,811.542969 C87.9296875,811.542969 76.9101562,811.542969 87.9296875,832.070312 C98.9492188,852.597656 109.1875,876.96875 108.503906,889.039062" id="Path-3"></path>
                    <path d="M159,752.5 L132.554687,751.96875 C132.554687,751.96875 124.230469,750.273438 124.230469,759.96875 C124.230469,769.664062 126.015625,808.753906 126.015625,808.753906" id="Path-4"></path>
                    <path d="M136.925781,747.902344 L136.925781,485.5 C136.925781,485.5 134,457.261719 145,457.261719 C156,457.261719 165.773438,457.261719 165.773438,457.261719" id="Path-5"></path>
                    <path d="M158.5,2 C158.5,2 141.867188,-9.42578125 140.265625,44.0664063 C138.777029,93.7855163 137.312222,394.773698 137.5,437 C137.51425,440.204464 140.265625,442.011719 140.265625,442.011719 C147.991843,442.011719 142.544271,442.011719 143.683594,442.011719 L154.710937,442.011719" id="Path-6"></path>
                    <path d="M163.9375,1240.70703 L109.667969,1240.70703 C109.667969,1240.70703 102.355469,1240.70703 95.0390625,1240.70703 C87.7226562,1240.70703 85.2539063,1255.93359 101.027344,1255.93359 L153.071095,1255.93359" id="Path-7"></path>
                    <path d="M163.61405,1271.09254 L109.344518,1271.09254 C109.344518,1271.09254 102.032018,1271.09254 94.7156121,1271.09254 C87.3992059,1271.09254 84.9304559,1286.3191 100.703893,1286.3191 L152.747644,1286.3191" id="Path-7-Copy"></path>
                    <path d="M107.929688,1205.50391 L107.929688,1240.03052" id="Path-8"></path>
                    <polyline id="Path-9" points="108.109375 1286.51562 77.734375 2509.40039 30.8476562 2648.98242"></polyline>
                    <path d="M0.041015625,2647.10156 L153.500981,2647.10156" id="Path-10"></path>
                </g>
                <g id="vertical-lines" transform="translate(73.000000, 1214.000000)" stroke="#000000" stroke-width="6" stroke-linecap="square">
                    <path d="M50,0 L50,26.5188612" id="Path-11"></path>
                    <polyline id="Path-11-Copy-3" points="51 77 48 1301 28 1431"></polyline>
                    <path d="M65,0 L65,26.5188612" id="Path-11-Copy"></path>
                    <polyline id="Path-11-Copy-4" points="66 77 66 1301.02148 58 1432"></polyline>
                    <path d="M79,0 L79,26.5188612" id="Path-11-Copy-2"></path>
                    <path d="M78.5,77 L78.5,1432.01328" id="Path-11-Copy-5"></path>
                    <polyline id="Path-12" points="0.5 1432 33.5 1302.5 30.5 626"></polyline>
                </g>
                <g id="face" transform="translate(58.000000, 1016.000000)">
                    <ellipse id="Oval-2" stroke="#101010" fill="#000000" cx="65.5" cy="27" rx="11.5" ry="27"></ellipse>
                    <path d="M14.3733538,105.854753 C8.14424991,110.73668 3.5,114.145247 1,110 C-1.5,105.854753 2.77089612,102.881927 9,98 C15.2291039,93.1180728 20,89 23.1619208,93.1024955 C26.3238416,97.2049909 20.6024577,100.972826 14.3733538,105.854753 Z" id="Combined-Shape" fill="#000000" fill-rule="nonzero"></path>
                    <path d="M14,103 C14,103 40.5,150 100,150" id="Path-14" stroke="#000000" stroke-width="6"></path>
                </g>
            </g>
            <path d="M102.5,1868.5 L102.5,1531.5" id="Line" stroke="#000000" stroke-width="6" stroke-linecap="square"></path>
            <path d="M209.5,1868.5 L209.5,1531.5" id="Line-Copy-39" stroke="#000000" stroke-width="6" stroke-linecap="square"></path>
        </g>
    </g>
</svg>